REM MD5 d1cc5eab0c1a1dff14bf54e34ab49c24
FILE "Dengeki PlayStation D32 (Japan).bin" BINARY
  TRACK 01 MODE2/2352
    INDEX 01 00:00:00
  TRACK 02 AUDIO
    INDEX 00 60:42:52
    INDEX 01 60:44:52
  TRACK 03 AUDIO
    INDEX 00 64:02:06
    INDEX 01 64:04:06
  TRACK 04 AUDIO
    INDEX 00 64:51:17
    INDEX 01 64:53:17
REM LEADOUT 68:01:17
